<svg aria-hidden="true" style="position: absolute; width: 0; height: 0; overflow: hidden;" version="1.1" xmlns="http://www.w3.org/2000/svg" xmlns:xlink="http://www.w3.org/1999/xlink">
<defs>
<symbol id="icon-logo">
<path d="M33.189 15.348l0.93 2.146c0.172 0.395 0.645 0.583 1.058 0.418 0.414-0.163 0.61-0.616 0.438-1.011l-0.93-2.145-1.496 0.592z"></path>
<path d="M33.809 16.779v0z"></path>
<path d="M31.227 10.82v0z"></path>
<path d="M32.378 6.47c0 1.14-0.966 2.064-2.158 2.064-1.193 0-2.16-0.924-2.16-2.064s0.967-2.064 2.16-2.064c1.191 0 2.158 0.924 2.158 2.064z"></path>
<path d="M31.299 6.47c0 0.57-0.483 1.033-1.079 1.033s-1.081-0.462-1.081-1.033c0-0.57 0.484-1.032 1.081-1.032s1.079 0.462 1.079 1.032z"></path>
<path d="M28.706 7.942l-2.953 6.815-0.74 3.058 0.499 0.197 1.738-2.663 0.414-0.953c-0.323-0.745 0.047-1.6 0.826-1.908l1.712-3.954c-0.582-0.005-1.109-0.23-1.496-0.592z"></path>
<path d="M31.733 7.941c-0.386 0.363-0.914 0.588-1.496 0.593l2.54 5.861 1.496-0.592-2.54-5.861z"></path>
<path d="M31.029 3.374v-2.322c-0-0.428-0.364-0.774-0.81-0.774-0.447 0-0.81 0.346-0.81 0.774l0 2.322h1.619z"></path>
<path d="M30.22 4.407c0.138 0 0.273 0.013 0.404 0.037v-1.069h-0.809v1.069c0.131-0.024 0.266-0.037 0.405-0.037z"></path>
<path d="M18.979 18.866h-2.693v-18.589h2.693c0.595 0 1.077 0.463 1.077 1.033v16.524h-0c-0 0.57-0.482 1.032-1.077 1.032z"></path>
<path d="M18.844 1.826c0.223 0 0.404-0.173 0.404-0.387s-0.181-0.387-0.404-0.387c-0.223 0-0.404 0.173-0.404 0.387s0.181 0.387 0.404 0.387z"></path>
<path d="M21.941 11.251c0 0.213 0.181 0.387 0.404 0.387s0.404-0.174 0.404-0.387c0 0.213 0.181 0.387 0.404 0.387s0.404-0.174 0.404-0.387c0 0.213-0.181 0.387-0.404 0.387s-0.404-0.174-0.404-0.387c0 0.213-0.181 0.387-0.404 0.387s-0.404-0.174-0.404-0.387z"></path>
<path d="M22.48 0.277c-0.297 0-0.539 0.232-0.539 0.517v-0 10.844l0.808 3.098 0.808-3.098v-10.844c0-0.285-0.241-0.517-0.539-0.517l-0.538-0z"></path>
<path fill="#000" style="fill: var(--color2, #000)" d="M49.856 22.84h-49.856v9.056h49.856v-9.056z"></path>
</symbol>
<symbol id="icon-pininterest" viewBox="8 0 16 32">
<path fill="#fff" style="fill: var(--color3, #fff)" d="M16.714 0c-8.312 0-12.502 5.932-12.502 10.88 0 2.995 1.139 5.659 3.582 6.653 0.401 0.163 0.76 0.005 0.876-0.436 0.081-0.305 0.273-1.076 0.357-1.398 0.118-0.436 0.072-0.589-0.251-0.97-0.706-0.827-1.155-1.898-1.155-3.416 0-4.401 3.308-8.34 8.613-8.34 4.697 0 7.277 2.858 7.277 6.673 0 5.022-2.232 9.26-5.546 9.26-1.829 0-3.198-1.507-2.76-3.355 0.527-2.205 1.544-4.586 1.544-6.179 0-1.425-0.768-2.614-2.36-2.614-1.869 0-3.372 1.927-3.372 4.507 0 1.645 0.557 2.757 0.557 2.757s-1.915 8.074-2.25 9.489c-0.669 2.816-0.099 6.269-0.052 6.619 0.029 0.205 0.295 0.254 0.416 0.099 0.172-0.226 2.4-2.963 3.158-5.699 0.214-0.775 1.229-4.787 1.229-4.787 0.608 1.154 2.385 2.171 4.273 2.171 5.624 0 9.438-5.105 9.438-11.936 0-5.165-4.394-9.977-11.074-9.977z"></path>
</symbol>
<symbol id="icon-linkindeen" viewBox="0 0 32 32">
<path fill="#fff" style="fill: var(--color3, #fff)" d="M29.619 30.421h-27.238c-1.306 0-2.363-0.926-2.363-2.069v-24.701c0-1.141 1.058-2.067 2.363-2.067h27.238c1.304 0 2.362 0.926 2.362 2.067v24.701c0 1.142-1.058 2.069-2.362 2.069zM5.557 25.67h4.707v-13.019h-4.707v13.019zM7.942 6.376c-1.611 0-2.662 0.971-2.662 2.25 0 1.248 1.021 2.25 2.6 2.25h0.030c1.642 0 2.662-1.002 2.662-2.25-0.029-1.278-1.021-2.25-2.63-2.25zM27.237 18.206c0-4-2.323-5.861-5.419-5.861-2.499 0-3.616 1.262-4.242 2.15v-1.845h-4.707c0.062 1.222 0 13.019 0 13.019h4.707v-7.27c0-0.387 0.030-0.778 0.155-1.054 0.339-0.778 1.115-1.582 2.414-1.582 1.704 0 2.384 1.194 2.384 2.944v6.963h4.707v-7.464zM17.544 14.539c0.010-0.014 0.022-0.029 0.032-0.043v0.043h-0.032z"></path>
</symbol>
<symbol id="icon-twitter" viewBox="6 0 16 24">
<path d="M30.557 6.394c-1.124 0.468-2.333 0.781-3.6 0.924 1.295-0.727 2.288-1.879 2.756-3.249-1.213 0.672-2.554 1.161-3.983 1.425-1.142-1.143-2.772-1.856-4.575-1.856-3.462 0-6.271 2.631-6.271 5.875 0 0.461 0.055 0.911 0.163 1.34-5.21-0.246-9.83-2.585-12.922-6.138-0.54 0.868-0.848 1.876-0.848 2.954 0 2.036 1.107 3.837 2.788 4.89-1.027-0.032-1.993-0.295-2.839-0.736 0 0.026 0 0.048 0 0.076 0 2.847 2.16 5.22 5.028 5.76-0.525 0.134-1.081 0.204-1.651 0.204-0.404 0-0.797-0.035-1.18-0.102 0.797 2.332 3.113 4.032 5.856 4.080-2.145 1.575-4.848 2.513-7.786 2.513-0.506 0-1.005-0.028-1.495-0.081 2.774 1.665 6.070 2.64 9.61 2.64 11.532 0 17.837-8.954 17.837-16.717 0-0.256-0.007-0.508-0.019-0.761 1.225-0.829 2.288-1.863 3.129-3.040z"></path>
</symbol>
<symbol id="icon-facebook" viewBox="6 0 16 32">
<path d="M17.915 31.988h-6.89v-15.99h-3.444v-5.512h3.444v-3.308c0-4.495 1.945-7.171 7.466-7.171h4.598v5.512h-2.872c-2.152 0-2.294 0.771-2.294 2.21l-0.008 2.757h5.208l-0.61 5.512h-4.598v15.99z"></path>
</symbol>
<symbol id="icon-mail" viewBox="0 0 16 11">
<path d="M8.13945 6.16166L8.13943 6.16163L8.13512 6.16456C8.10734 6.18343 8.06694 6.19696 8.0235 6.19696H8.02008C7.95651 6.19696 7.91576 6.17544 7.90255 6.1642L7.90186 6.16361L1.09985 0.4H14.9358L8.4497 5.90252L8.44932 5.90285L8.16437 6.1452L8.16349 6.14579L8.13945 6.16166ZM10.0346 6.48934L15.0112 10.6H0.983875L5.97125 6.45877L6.96401 7.30051L6.9651 7.30143C7.25806 7.54803 7.63451 7.67805 8.02235 7.67805C8.4099 7.67805 8.78655 7.54692 9.07963 7.29972L9.08053 7.29895L10.0346 6.48934ZM4.82991 5.4915L0.4 9.17041V1.73773L4.82991 5.4915ZM15.6 1.76878V9.17559L11.1765 5.52124L15.6 1.76878Z"  stroke-width="0.8"/>
</symbol>
<symbol id="icon-phone" viewBox="0 0 32 32">
<path  d="M30.123 24.71l1.867-0.244-0.008-0.063-0.012-0.063-1.846 0.369zM29.676 25.986l1.326 1.336 0.005-0.005-1.331-1.331zM25.433 30.197l-1.326-1.336-0.038 0.037-0.036 0.040 1.399 1.259zM24.683 30.74l-0.818-1.695-0.001 0 0.819 1.695zM23.774 31.027v1.882h0.134l0.132-0.019-0.266-1.864zM23.582 31.043l0.187 1.873 0.001-0-0.187-1.873zM17.888 29.83v0zM13.437 27.39v0zM8.141 22.923l1.339-1.323-0.017-0.017-1.321 1.34zM4.44 18.712v0zM2.079 14.995v0zM0.037 7.29l-1.863-0.266-0.019 0.132v0.134h1.882zM0.867 5.631l1.259 1.399 0.037-0.033 0.035-0.035-1.331-1.331zM5.11 1.388v0zM7.407 1.771l1.665-0.878-0.036-0.068-0.041-0.065-1.588 1.011zM10.821 8.247l-1.665 0.878 0.012 0.023 0.013 0.022 1.641-0.923zM10.438 10.385v0zM8.875 11.948v0zM8.715 12.395h-1.882v0.178l0.033 0.175 1.849-0.352zM9.289 13.926l1.684-0.842-0.006-0.012-0.006-0.012-1.671 0.867zM12.735 18.329l1.346-1.316-0.014-0.015-0.015-0.015-1.316 1.346zM15.287 20.61v0zM18.302 22.269l0.369-1.846-0.001-0-0.368 1.846zM18.701 22.349l-0.369 1.846 0.183 0.037h0.187v-1.882zM18.909 22.301l0.595 1.786 0.001-0-0.596-1.785zM19.116 22.189l1.331 1.331 0.011-0.012-1.343-1.319zM20.934 20.339l-1.25-1.407-0.048 0.042-0.045 0.046 1.343 1.319zM23.136 20.020l-0.969 1.614 0.447 0.268h0.522v-1.882zM23.168 20.020l0.957-1.621-0.443-0.262h-0.514v1.882zM29.325 23.657l0.991-1.6-0.017-0.010-0.017-0.010-0.957 1.621zM28.256 24.953c-0.002-0.019-0.005-0.089 0.026-0.18 0.031-0.088 0.071-0.127 0.063-0.119l2.662 2.662c0.757-0.757 1.125-1.757 0.982-2.851l-3.733 0.487zM28.35 24.65l-4.243 4.211 2.652 2.672 4.243-4.211-2.652-2.672zM24.034 28.938c-0 0-0.010 0.011-0.035 0.029s-0.068 0.046-0.133 0.077l1.635 3.391c0.487-0.235 0.948-0.553 1.331-0.979l-2.798-2.518zM23.865 29.045c-0.158 0.076-0.275 0.107-0.357 0.119l0.532 3.727c0.514-0.073 1.003-0.234 1.462-0.456l-1.637-3.39zM23.774 29.144c-0.14 0-0.326 0.020-0.379 0.025l0.374 3.746c0.024-0.002 0.044-0.004 0.061-0.006s0.029-0.003 0.037-0.003c0.004-0 0.006-0 0.007-0.001s-0.001 0-0.005 0c-0.004 0-0.013 0.001-0.026 0.002-0.007 0-0.016 0.001-0.027 0.001s-0.026 0.001-0.044 0.001v-3.765zM23.396 29.17c-0.020 0.002-0.090 0.007-0.228 0.007v3.765c0.202 0 0.409-0.006 0.601-0.025l-0.373-3.746zM23.168 29.176c-0.249 0-0.781-0.049-1.678-0.186l-0.569 3.721c0.911 0.139 1.688 0.229 2.247 0.229v-3.765zM21.49 28.991c-0.696-0.107-1.646-0.387-2.882-0.899l-1.442 3.478c1.38 0.572 2.642 0.973 3.754 1.143l0.569-3.721zM18.609 28.092c-1.167-0.484-2.545-1.233-4.142-2.277l-2.060 3.151c1.721 1.125 3.31 2.003 4.76 2.604l1.442-3.478zM14.467 25.814c-1.517-0.992-3.18-2.386-4.988-4.215l-2.677 2.647c1.936 1.958 3.804 3.541 5.605 4.719l2.060-3.151zM9.462 21.583c-1.434-1.414-2.597-2.741-3.502-3.981l-3.040 2.22c1.051 1.44 2.356 2.92 3.9 4.442l2.643-2.681zM5.96 17.602c-0.938-1.285-1.671-2.444-2.213-3.48l-3.336 1.746c0.649 1.24 1.49 2.559 2.508 3.954l3.041-2.22zM3.747 14.122c-0.561-1.071-0.96-2.002-1.216-2.799l-3.584 1.153c0.339 1.054 0.834 2.186 1.464 3.391l3.335-1.746zM2.531 11.324c-0.28-0.869-0.453-1.568-0.539-2.111l-3.718 0.59c0.126 0.797 0.358 1.693 0.673 2.674l3.584-1.153zM1.992 9.212c-0.099-0.622-0.118-0.995-0.107-1.18l-3.759-0.209c-0.032 0.581 0.034 1.261 0.148 1.979l3.718-0.59zM1.885 8.033c0.019-0.34 0.035-0.632 0.035-0.742h-3.765c0-0.035 0.001-0.053-0-0.015-0.001 0.024-0.003 0.061-0.005 0.112-0.005 0.101-0.013 0.246-0.023 0.436l3.759 0.209zM1.901 7.556c0.012-0.082 0.043-0.199 0.119-0.357l-3.39-1.637c-0.222 0.459-0.382 0.948-0.455 1.461l3.727 0.532zM2.020 7.199c0.031-0.065 0.058-0.108 0.077-0.134s0.029-0.035 0.029-0.035l-2.518-2.798c-0.426 0.384-0.744 0.844-0.978 1.331l3.39 1.637zM2.198 6.962l4.243-4.243-2.662-2.662-4.243 4.243 2.662 2.662zM6.441 2.719c0.005-0.005-0.026 0.027-0.098 0.058-0.075 0.033-0.152 0.046-0.212 0.046v-3.765c-0.934 0-1.74 0.386-2.352 0.998l2.662 2.662zM6.131 2.824c-0.045 0-0.113-0.007-0.193-0.033s-0.15-0.064-0.203-0.104l2.259-3.012c-0.552-0.414-1.197-0.616-1.863-0.616v3.765zM5.735 2.686c0.023 0.018 0.051 0.044 0.084 0.095l3.176-2.021c-0.265-0.417-0.599-0.784-1.001-1.086l-2.259 3.012zM5.742 2.648l3.414 6.477 3.33-1.755-3.414-6.477-3.33 1.755zM9.18 9.17c-0.014-0.025-0.032-0.069-0.039-0.122-0.007-0.052-0.001-0.080-0.002-0.072l3.684 0.776c0.173-0.823 0.068-1.665-0.361-2.427l-3.281 1.846zM9.138 8.976c-0.009 0.042-0.018 0.059-0.020 0.063s-0.003 0.007-0.012 0.015l2.662 2.662c0.55-0.55 0.897-1.224 1.053-1.964l-3.684-0.776zM9.107 9.054l-1.563 1.563 2.662 2.662 1.563-1.563-2.662-2.662zM7.544 10.617c-0.344 0.344-0.497 0.734-0.566 0.943l3.571 1.191c-0.009 0.027-0.032 0.091-0.077 0.174-0.043 0.081-0.126 0.214-0.267 0.355l-2.662-2.662zM6.977 11.56c-0.063 0.19-0.144 0.486-0.144 0.835h3.765c0 0.12-0.015 0.211-0.025 0.261-0.010 0.052-0.021 0.085-0.024 0.095l-3.572-1.191zM6.866 12.747c0.13 0.684 0.403 1.372 0.752 2.046l3.342-1.733c-0.246-0.475-0.356-0.808-0.396-1.017l-3.698 0.704zM7.606 14.768c0.32 0.639 0.778 1.354 1.34 2.129l3.048-2.209c-0.502-0.693-0.83-1.222-1.021-1.604l-3.367 1.684zM8.946 16.897c0.617 0.852 1.453 1.779 2.473 2.777l2.633-2.691c-0.937-0.916-1.611-1.679-2.057-2.295l-3.048 2.209zM11.389 19.645c0.999 1.021 1.931 1.86 2.789 2.486l2.217-3.043c-0.63-0.459-1.4-1.14-2.315-2.076l-2.691 2.633zM14.179 22.132c0.78 0.568 1.493 1.032 2.119 1.351l1.712-3.353c-0.374-0.191-0.906-0.526-1.614-1.041l-2.217 3.043zM16.298 23.483c0.526 0.269 1.102 0.525 1.636 0.632l0.736-3.692c0.024 0.005-0.019-0.002-0.152-0.056-0.125-0.050-0.293-0.127-0.509-0.237l-1.712 3.353zM17.933 24.115l0.399 0.080 0.739-3.691-0.399-0.080-0.739 3.691zM18.701 24.231c0.378 0 0.707-0.112 0.802-0.144l-1.19-3.572c-0.013 0.004 0.006-0.003 0.048-0.012 0.022-0.005 0.060-0.013 0.11-0.020 0.048-0.007 0.128-0.016 0.23-0.016v3.765zM19.505 24.086c0.207-0.069 0.598-0.222 0.942-0.566l-2.662-2.662c0.141-0.141 0.275-0.223 0.355-0.267 0.083-0.045 0.146-0.067 0.173-0.076l1.192 3.571zM20.459 23.509l1.819-1.85-2.685-2.639-1.819 1.85 2.685 2.639zM22.184 21.746c0.018-0.016 0.030-0.024 0.036-0.027 0.003-0.002 0.005-0.003 0.005-0.003s0.001-0.001 0.001-0.001 0-0 0.001-0 0.002-0.001 0.005-0.001 0.019-0.003 0.041-0.003v-3.765c-0.974 0-1.864 0.341-2.59 0.985l2.5 2.815zM22.274 21.711c0.074 0 0.095 0.007 0.078 0.003-0.018-0.004-0.090-0.022-0.186-0.080l1.938-3.228c-0.61-0.366-1.274-0.46-1.83-0.46v3.765zM23.136 21.902h0.032v-3.765h-0.032v3.765zM22.21 21.64l6.157 3.637 1.915-3.241-6.158-3.637-1.915 3.241zM28.334 25.257c0.064 0.040 0.056 0.048 0.025 0.007-0.016-0.021-0.033-0.049-0.049-0.084s-0.027-0.070-0.033-0.101l3.692-0.739c-0.209-1.042-0.864-1.796-1.653-2.284l-1.982 3.201z"></path>
</symbol>
<symbol id="icon-location" viewBox="0 0 24 24">
<path d="M10.020 0c-5.534 0-10.020 4.486-10.020 10.020v0c0 4.622 6.994 17.322 9.295 21.376 0.146 0.253 0.416 0.421 0.724 0.421s0.578-0.168 0.722-0.417l0.002-0.004c2.303-4.053 9.295-16.754 9.295-21.376 0-5.534-4.485-10.019-10.019-10.020h-0zM10.020 13.592c-2.274 0-4.118-1.844-4.118-4.118s1.844-4.118 4.118-4.118v0c2.274 0 4.118 1.844 4.118 4.118s-1.844 4.118-4.118 4.118v0z"></path>
</symbol>
<symbol id="icon-arrowLeft" viewBox="0 0 18 9">
<path fill-rule="evenodd" clip-rule="evenodd" d="M18 4.5C18 4.22386 17.7761 4 17.5 4L1.5 4C1.22386 4 1 4.22386 1 4.5C1 4.77614 1.22386 5 1.5 5L17.5 5C17.7761 5 18 4.77614 18 4.5Z" fill="#333333"/>
<path fill-rule="evenodd" clip-rule="evenodd" d="M5.35355 0.646447C5.15829 0.451184 4.84171 0.451184 4.64645 0.646447L0.792894 4.5L4.64645 8.35355C4.84171 8.54882 5.15829 8.54882 5.35355 8.35355C5.54882 8.15829 5.54882 7.84171 5.35355 7.64645L2.20711 4.5L5.35355 1.35355C5.54882 1.15829 5.54882 0.841709 5.35355 0.646447Z" fill="#333333"/>
</symbol>
<symbol id="icon-arrowRight" viewBox="0 0 18 9">
<path fill-rule="evenodd" clip-rule="evenodd" d="M0 4.5C0 4.22386 0.223858 4 0.5 4L16.5 4C16.7761 4 17 4.22386 17 4.5C17 4.77614 16.7761 5 16.5 5L0.5 5C0.223858 5 0 4.77614 0 4.5Z"/>
<path fill-rule="evenodd" clip-rule="evenodd" d="M12.6464 0.646447C12.8417 0.451184 13.1583 0.451184 13.3536 0.646447L17.2071 4.5L13.3536 8.35355C13.1583 8.54882 12.8417 8.54882 12.6464 8.35355C12.4512 8.15829 12.4512 7.84171 12.6464 7.64645L15.7929 4.5L12.6464 1.35355C12.4512 1.15829 12.4512 0.841709 12.6464 0.646447Z"/>
</symbol>
<symbol id="icon-one" viewBox="0 0 104 140">
<path d="M35.9688 141V35.5312H35.1875L0.617188 58.3828V23.7148L35.9688 0.0820312H77.375V141H35.9688Z" fill="#F2F2F2"/>
</symbol>
<symbol id="icon-two" viewBox="0 0 120 140">
<path d="M0.0546875 48.3203C0.0546875 33.8672 5.29557 22.2461 15.7773 13.457C26.2591 4.60286 40.1914 0.175781 57.5742 0.175781C74.5013 0.175781 87.9128 4.11458 97.8086 11.9922C107.77 19.8047 112.75 30.1562 112.75 43.0469C112.75 46.6927 112.132 50.4036 110.895 54.1797C109.658 57.8906 108.225 61.0807 106.598 63.75C105.035 66.4193 102.984 69.2188 100.445 72.1484C97.9714 75.0781 95.9857 77.2591 94.4883 78.6914C92.9909 80.1237 91.168 81.7839 89.0195 83.6719L55.9141 112.969V113.75H114.41V145H2.49609V117.461L59.1367 67.3633C63.9544 63.0664 67.4375 59.1276 69.5859 55.5469C71.7995 51.901 72.9062 48.1576 72.9062 44.3164C72.9062 40.4102 71.4089 37.1875 68.4141 34.6484C65.4193 32.0443 61.3177 30.7422 56.1094 30.7422C50.7057 30.7422 46.2786 32.3698 42.8281 35.625C39.4427 38.8802 37.75 43.0794 37.75 48.2227V49.1016H0.0546875V48.3203Z" fill="#F2F2F2"/>
</symbol>
<symbol id="icon-menu" >
<path fill-rule="evenodd" clip-rule="evenodd" d="M8 14.667V12h24v2.667H8zm0 6.666h24v-2.666H8v2.666zM8 28h24v-2.667H8V28z"/>
</symbol>
<symbol id="icon-cross" viewBox="0 0 40 40">
<path d="M29.667 12.88L27.787 11l-7.454 7.453L12.88 11 11 12.88l7.453 7.453L11 27.787l1.88 1.88 7.453-7.454 7.454 7.454 1.88-1.88-7.454-7.454 7.454-7.453z"/>
</defs>
</svg>
